<mxfile host="app.diagrams.net" modified="2021-10-24T02:43:12.822Z" agent="5.0 (Windows NT 10.0; WOW64) AppleWebKit/537.36 (KHTML, like Gecko) Chrome/93.0.4577.92 Safari/537.36" etag="9XqpznDpMDlI5tes_ztw" version="15.5.8" type="github">
  <diagram id="LXYIyYxbr9OvpMU_7aWC" name="Page-1">
    <mxGraphModel dx="824" dy="1645" grid="1" gridSize="10" guides="1" tooltips="1" connect="1" arrows="1" fold="1" page="1" pageScale="1" pageWidth="827" pageHeight="1169" math="0" shadow="0">
      <root>
        <mxCell id="0" />
        <mxCell id="1" parent="0" />
        <mxCell id="pGhpaP_qxKYogSerEgJE-11" value="" style="edgeStyle=orthogonalEdgeStyle;rounded=0;orthogonalLoop=1;jettySize=auto;html=1;fontSize=18;" parent="1" source="pGhpaP_qxKYogSerEgJE-3" target="pGhpaP_qxKYogSerEgJE-4" edge="1">
          <mxGeometry relative="1" as="geometry" />
        </mxCell>
        <mxCell id="pGhpaP_qxKYogSerEgJE-3" value="&lt;font style=&quot;font-size: 18px&quot;&gt;Bắt đầu&lt;/font&gt;" style="ellipse;whiteSpace=wrap;html=1;" parent="1" vertex="1">
          <mxGeometry x="350" y="-1150" width="130" height="80" as="geometry" />
        </mxCell>
        <mxCell id="pGhpaP_qxKYogSerEgJE-13" value="" style="edgeStyle=orthogonalEdgeStyle;rounded=0;orthogonalLoop=1;jettySize=auto;html=1;fontSize=18;" parent="1" source="pGhpaP_qxKYogSerEgJE-4" target="pGhpaP_qxKYogSerEgJE-12" edge="1">
          <mxGeometry relative="1" as="geometry" />
        </mxCell>
        <mxCell id="pGhpaP_qxKYogSerEgJE-4" value="Khai báo a, b, c" style="rounded=0;whiteSpace=wrap;html=1;fontSize=18;" parent="1" vertex="1">
          <mxGeometry x="350" y="-1030" width="130" height="60" as="geometry" />
        </mxCell>
        <mxCell id="pGhpaP_qxKYogSerEgJE-15" value="" style="edgeStyle=orthogonalEdgeStyle;rounded=0;orthogonalLoop=1;jettySize=auto;html=1;fontSize=18;" parent="1" source="pGhpaP_qxKYogSerEgJE-12" target="pGhpaP_qxKYogSerEgJE-14" edge="1">
          <mxGeometry relative="1" as="geometry" />
        </mxCell>
        <mxCell id="pGhpaP_qxKYogSerEgJE-12" value="a, b, c" style="shape=parallelogram;perimeter=parallelogramPerimeter;whiteSpace=wrap;html=1;fixedSize=1;fontSize=18;" parent="1" vertex="1">
          <mxGeometry x="355" y="-920" width="120" height="60" as="geometry" />
        </mxCell>
        <mxCell id="pGhpaP_qxKYogSerEgJE-17" value="" style="edgeStyle=orthogonalEdgeStyle;rounded=0;orthogonalLoop=1;jettySize=auto;html=1;fontSize=18;" parent="1" source="pGhpaP_qxKYogSerEgJE-14" target="pGhpaP_qxKYogSerEgJE-16" edge="1">
          <mxGeometry relative="1" as="geometry" />
        </mxCell>
        <mxCell id="pGhpaP_qxKYogSerEgJE-22" style="edgeStyle=orthogonalEdgeStyle;rounded=0;orthogonalLoop=1;jettySize=auto;html=1;entryX=0.5;entryY=0;entryDx=0;entryDy=0;fontSize=18;" parent="1" source="pGhpaP_qxKYogSerEgJE-14" target="pGhpaP_qxKYogSerEgJE-19" edge="1">
          <mxGeometry relative="1" as="geometry" />
        </mxCell>
        <mxCell id="pGhpaP_qxKYogSerEgJE-14" value="a + b &amp;gt; c" style="rhombus;whiteSpace=wrap;html=1;fontSize=18;" parent="1" vertex="1">
          <mxGeometry x="326" y="-810" width="176" height="80" as="geometry" />
        </mxCell>
        <mxCell id="pGhpaP_qxKYogSerEgJE-27" style="edgeStyle=orthogonalEdgeStyle;rounded=0;orthogonalLoop=1;jettySize=auto;html=1;entryX=0.5;entryY=0;entryDx=0;entryDy=0;fontSize=18;" parent="1" source="pGhpaP_qxKYogSerEgJE-16" target="pGhpaP_qxKYogSerEgJE-18" edge="1">
          <mxGeometry relative="1" as="geometry" />
        </mxCell>
        <mxCell id="pGhpaP_qxKYogSerEgJE-16" value="a, b, c tạo thành 1 tam giác" style="rounded=0;whiteSpace=wrap;html=1;fontSize=18;" parent="1" vertex="1">
          <mxGeometry x="334" y="-660" width="160" height="60" as="geometry" />
        </mxCell>
        <mxCell id="pGhpaP_qxKYogSerEgJE-18" value="Kết thúc" style="ellipse;whiteSpace=wrap;html=1;fontSize=18;" parent="1" vertex="1">
          <mxGeometry x="351" y="-530" width="125" height="80" as="geometry" />
        </mxCell>
        <mxCell id="pGhpaP_qxKYogSerEgJE-29" style="edgeStyle=orthogonalEdgeStyle;rounded=0;orthogonalLoop=1;jettySize=auto;html=1;fontSize=18;entryX=1;entryY=0.5;entryDx=0;entryDy=0;" parent="1" source="pGhpaP_qxKYogSerEgJE-19" target="pGhpaP_qxKYogSerEgJE-18" edge="1">
          <mxGeometry relative="1" as="geometry">
            <mxPoint x="680" y="-490" as="targetPoint" />
            <Array as="points">
              <mxPoint x="680" y="-490" />
            </Array>
          </mxGeometry>
        </mxCell>
        <mxCell id="pGhpaP_qxKYogSerEgJE-19" value="a, b, c không tạo thành 1 tam giác" style="rounded=0;whiteSpace=wrap;html=1;fontSize=18;" parent="1" vertex="1">
          <mxGeometry x="600" y="-660" width="160" height="60" as="geometry" />
        </mxCell>
        <mxCell id="pGhpaP_qxKYogSerEgJE-24" value="Đ" style="text;html=1;strokeColor=none;fillColor=none;align=center;verticalAlign=middle;whiteSpace=wrap;rounded=0;fontSize=18;" parent="1" vertex="1">
          <mxGeometry x="414" y="-710" width="60" height="30" as="geometry" />
        </mxCell>
        <mxCell id="pGhpaP_qxKYogSerEgJE-26" value="S" style="text;html=1;strokeColor=none;fillColor=none;align=center;verticalAlign=middle;whiteSpace=wrap;rounded=0;fontSize=18;" parent="1" vertex="1">
          <mxGeometry x="510" y="-770" width="60" height="30" as="geometry" />
        </mxCell>
      </root>
    </mxGraphModel>
  </diagram>
</mxfile>
